<?xml version="1.0" encoding="iso-8859-1"?>
<!-- Generator: Adobe Illustrator 19.0.0, SVG Export Plug-In . SVG Version: 6.00 Build 0)  -->
<svg version="1.1" id="Capa_1" xmlns="http://www.w3.org/2000/svg" xmlns:xlink="http://www.w3.org/1999/xlink" x="0px" y="0px"
	 viewBox="0 0 512 512" style="enable-background:new 0 0 512 512;" xml:space="preserve">
<polyline style="fill:#ECEDF2;" points="252.199,27.391 483.255,27.391 483.255,493.508 28.748,493.508 28.748,27.391 
	91.338,27.391 "/>
<polyline style="fill:#C6CAD5;" points="252.199,27.391 483.255,27.391 483.255,75.314 28.748,75.314 28.748,27.391 91.338,27.391 
	"/>
<path style="fill:#525C66;" d="M190.254,45.535h293.001h20.41c4.603,0,8.335-3.731,8.335-8.335V17.581
	c0-4.603-3.731-8.335-8.335-8.335H211.74h-79.955H8.338c-4.603,0-8.335,3.731-8.335,8.335v19.62c0,4.603,3.731,8.335,8.335,8.335
	h20.41h110.228"/>
<circle style="fill:#C6CAD5;" cx="171.77" cy="104.962" r="94.166"/>
<circle style="fill:#FFFFFF;" cx="171.77" cy="94.514" r="94.166"/>
<path style="fill:#D81616;" d="M226.758,76.028h-32.335c-2.302,0-4.169-1.866-4.169-4.169V39.524c0-2.302-1.866-4.169-4.169-4.169
	h-28.637c-2.302,0-4.169,1.866-4.169,4.169V71.86c0,2.302-1.866,4.169-4.169,4.169h-32.335c-2.302,0-4.169,1.866-4.169,4.169v28.637
	c0,2.302,1.866,4.169,4.169,4.169h32.335c2.302,0,4.169,1.866,4.169,4.169v32.335c0,2.302,1.866,4.169,4.169,4.169h28.637
	c2.302,0,4.169-1.866,4.169-4.169v-32.335c0-2.302,1.866-4.169,4.169-4.169h32.335c2.302,0,4.169-1.866,4.169-4.169V80.198
	C230.927,77.895,229.061,76.028,226.758,76.028z"/>
<g>
	<rect x="314.523" y="220.287" style="fill:#A0D9F2;" width="50.924" height="92.99"/>
	<rect x="146.556" y="220.287" style="fill:#A0D9F2;" width="50.924" height="92.99"/>
	<rect x="398.501" y="220.287" style="fill:#A0D9F2;" width="50.924" height="92.99"/>
	<rect x="230.534" y="220.287" style="fill:#A0D9F2;" width="50.924" height="92.99"/>
	<rect x="62.581" y="220.287" style="fill:#A0D9F2;" width="50.924" height="92.99"/>
	<rect x="146.556" y="344.88" style="fill:#A0D9F2;" width="50.924" height="92.99"/>
	<rect x="230.534" y="344.88" style="fill:#A0D9F2;" width="50.924" height="92.99"/>
	<rect x="62.581" y="344.88" style="fill:#A0D9F2;" width="50.924" height="92.99"/>
	<rect x="314.523" y="95.684" style="fill:#A0D9F2;" width="50.924" height="92.99"/>
	<rect x="398.501" y="95.684" style="fill:#A0D9F2;" width="50.924" height="92.99"/>
</g>
<g>
	<path style="fill:#FFFFFF;" d="M365.444,319.545H314.52c-3.462,0-6.269-2.808-6.269-6.269v-92.99c0-3.462,2.808-6.269,6.269-6.269
		h50.924c3.462,0,6.269,2.808,6.269,6.269v92.99C371.713,316.738,368.905,319.545,365.444,319.545z M320.789,307.006h38.385v-80.451
		h-38.385V307.006z"/>
	<path style="fill:#FFFFFF;" d="M197.485,319.545h-50.924c-3.462,0-6.269-2.808-6.269-6.269v-92.99c0-3.462,2.808-6.269,6.269-6.269
		h50.924c3.462,0,6.269,2.808,6.269,6.269v92.99C203.754,316.738,200.946,319.545,197.485,319.545z M152.83,307.006h38.385v-80.451
		H152.83V307.006z"/>
	<path style="fill:#FFFFFF;" d="M449.423,319.545h-50.924c-3.462,0-6.269-2.808-6.269-6.269v-92.99c0-3.462,2.808-6.269,6.269-6.269
		h50.924c3.462,0,6.269,2.808,6.269,6.269v92.99C455.692,316.738,452.885,319.545,449.423,319.545z M404.768,307.006h38.385v-80.451
		h-38.385V307.006z"/>
	<path style="fill:#FFFFFF;" d="M281.464,319.545H230.54c-3.462,0-6.269-2.808-6.269-6.269v-92.99c0-3.462,2.808-6.269,6.269-6.269
		h50.924c3.462,0,6.269,2.808,6.269,6.269v92.99C287.733,316.738,284.925,319.545,281.464,319.545z M236.809,307.006h38.385v-80.451
		h-38.385L236.809,307.006L236.809,307.006z"/>
	<path style="fill:#FFFFFF;" d="M113.504,319.545H62.581c-3.462,0-6.269-2.808-6.269-6.269v-92.99c0-3.462,2.808-6.269,6.269-6.269
		h50.924c3.462,0,6.269,2.808,6.269,6.269v92.99C119.774,316.738,116.967,319.545,113.504,319.545z M68.85,307.006h38.385v-80.451
		H68.85V307.006z"/>
</g>
<polygon style="fill:#A0D9F2;" points="449.423,344.882 314.52,344.882 314.52,475.362 449.423,485.812 "/>
<g>
	<path style="fill:#FFFFFF;" d="M455.692,480.587h-12.539V351.151H320.789v129.436H308.25V344.882c0-3.462,2.808-6.269,6.269-6.269
		h134.903c3.462,0,6.269,2.808,6.269,6.269L455.692,480.587L455.692,480.587z"/>
	<path style="fill:#FFFFFF;" d="M197.485,444.142h-50.924c-3.462,0-6.269-2.808-6.269-6.269v-92.99c0-3.462,2.808-6.269,6.269-6.269
		h50.924c3.462,0,6.269,2.808,6.269,6.269v92.99C203.754,441.334,200.946,444.142,197.485,444.142z M152.83,431.603h38.385v-80.451
		H152.83V431.603z"/>
	<path style="fill:#FFFFFF;" d="M281.464,444.142H230.54c-3.462,0-6.269-2.808-6.269-6.269v-92.99c0-3.462,2.808-6.269,6.269-6.269
		h50.924c3.462,0,6.269,2.808,6.269,6.269v92.99C287.733,441.334,284.925,444.142,281.464,444.142z M236.809,431.603h38.385v-80.451
		h-38.385L236.809,431.603L236.809,431.603z"/>
	<path style="fill:#FFFFFF;" d="M113.504,444.142H62.581c-3.462,0-6.269-2.808-6.269-6.269v-92.99c0-3.462,2.808-6.269,6.269-6.269
		h50.924c3.462,0,6.269,2.808,6.269,6.269v92.99C119.774,441.334,116.967,444.142,113.504,444.142z M68.85,431.603h38.385v-80.451
		H68.85V431.603z"/>
	<path style="fill:#FFFFFF;" d="M365.444,194.949H314.52c-3.462,0-6.269-2.808-6.269-6.269V95.688c0-3.462,2.808-6.269,6.269-6.269
		h50.924c3.462,0,6.269,2.808,6.269,6.269v92.99C371.713,192.141,368.905,194.949,365.444,194.949z M320.789,182.41h38.385v-80.452
		h-38.385V182.41z"/>
	<path style="fill:#FFFFFF;" d="M449.423,194.949h-50.924c-3.462,0-6.269-2.808-6.269-6.269V95.688c0-3.462,2.808-6.269,6.269-6.269
		h50.924c3.462,0,6.269,2.808,6.269,6.269v92.99C455.692,192.141,452.885,194.949,449.423,194.949z M404.768,182.41h38.385v-80.452
		h-38.385V182.41z"/>
	<rect x="314.523" y="370.48" style="fill:#FFFFFF;" width="134.906" height="12.539"/>
	<rect x="375.701" y="376.749" style="fill:#FFFFFF;" width="12.539" height="109.055"/>
	<rect x="146.556" y="368.39" style="fill:#FFFFFF;" width="50.928" height="12.539"/>
	<path style="fill:#FFFFFF;" d="M281.466,380.925h-50.928v-12.539h44.659v-23.5h12.539v29.769
		C287.735,378.118,284.928,380.925,281.466,380.925z"/>
	<rect x="62.582" y="368.39" style="fill:#FFFFFF;" width="50.918" height="12.539"/>
	<path style="fill:#FFFFFF;" d="M449.421,256.333h-50.918v-12.539h44.648v-23.51h12.539v29.779
		C455.691,253.525,452.884,256.333,449.421,256.333z"/>
	<rect x="230.534" y="243.797" style="fill:#FFFFFF;" width="50.928" height="12.539"/>
	<rect x="62.582" y="243.797" style="fill:#FFFFFF;" width="50.918" height="12.539"/>
	<rect x="146.556" y="243.797" style="fill:#FFFFFF;" width="50.928" height="12.539"/>
	<rect x="314.512" y="243.797" style="fill:#FFFFFF;" width="50.928" height="12.539"/>
	<path style="fill:#FFFFFF;" d="M449.421,131.739h-50.918V119.2h44.648V95.69h12.539v29.779
		C455.691,128.932,452.884,131.739,449.421,131.739z"/>
	<rect x="314.512" y="119.204" style="fill:#FFFFFF;" width="50.928" height="12.539"/>
</g>
<path style="fill:#423E3E;" d="M496.669,475.363H15.328C6.863,475.363,0,482.226,0,490.69v20.962h511.997V490.69
	C511.997,482.226,505.134,475.363,496.669,475.363z"/>
<g>
</g>
<g>
</g>
<g>
</g>
<g>
</g>
<g>
</g>
<g>
</g>
<g>
</g>
<g>
</g>
<g>
</g>
<g>
</g>
<g>
</g>
<g>
</g>
<g>
</g>
<g>
</g>
<g>
</g>
</svg>
